<mxfile host="Electron" modified="2024-03-15T05:26:25.066Z" agent="Mozilla/5.0 (Windows NT 10.0; Win64; x64) AppleWebKit/537.36 (KHTML, like Gecko) draw.io/21.6.8 Chrome/114.0.5735.289 Electron/25.5.0 Safari/537.36" etag="Q8Ibpl6ne4sCmJoHbwh-" version="21.6.8" type="device">
  <diagram name="Page-1" id="lOo2SRsDIVCOL9PPQms0">
    <mxGraphModel dx="1683" dy="1208" grid="0" gridSize="10" guides="1" tooltips="1" connect="1" arrows="1" fold="1" page="0" pageScale="1" pageWidth="827" pageHeight="1169" background="#FFFFFF" math="0" shadow="1">
      <root>
        <mxCell id="0" />
        <mxCell id="1" parent="0" />
        <mxCell id="L6oSHJMiZWYgVflE6wv4-33" value="" style="rounded=0;whiteSpace=wrap;html=1;fillColor=#FFFFFF;strokeColor=#000000;strokeWidth=2;" vertex="1" parent="1">
          <mxGeometry x="140" y="707" width="800" height="630" as="geometry" />
        </mxCell>
        <mxCell id="peqWukIWgn3L93WKMnT7-106" value="" style="rounded=0;whiteSpace=wrap;html=1;fillColor=#FFFFFF;strokeColor=#000000;strokeWidth=2;" parent="1" vertex="1">
          <mxGeometry x="140" y="-218" width="800" height="888" as="geometry" />
        </mxCell>
        <mxCell id="peqWukIWgn3L93WKMnT7-1" value="Registerd User" style="shape=umlActor;verticalLabelPosition=bottom;verticalAlign=top;html=1;fontStyle=1;fontSize=14;strokeWidth=2;strokeColor=#000000;fontColor=#1A1A1A;" parent="1" vertex="1">
          <mxGeometry x="40" y="192.5" width="30" height="60" as="geometry" />
        </mxCell>
        <mxCell id="peqWukIWgn3L93WKMnT7-3" value="Unregistered User" style="shape=umlActor;verticalLabelPosition=bottom;verticalAlign=top;html=1;fontStyle=1;fontSize=14;strokeWidth=2;strokeColor=#000000;fontColor=#1A1A1A;" parent="1" vertex="1">
          <mxGeometry x="50" y="525" width="30" height="60" as="geometry" />
        </mxCell>
        <mxCell id="peqWukIWgn3L93WKMnT7-5" value="User" style="shape=umlActor;verticalLabelPosition=bottom;verticalAlign=top;html=1;fontStyle=1;fontSize=14;strokeWidth=2;strokeColor=#000000;fontColor=#1A1A1A;" parent="1" vertex="1">
          <mxGeometry x="-110" y="362.5" width="30" height="65" as="geometry" />
        </mxCell>
        <mxCell id="peqWukIWgn3L93WKMnT7-16" style="edgeStyle=orthogonalEdgeStyle;rounded=0;orthogonalLoop=1;jettySize=auto;html=1;strokeColor=#000000;strokeWidth=2;" parent="1" source="peqWukIWgn3L93WKMnT7-6" edge="1">
          <mxGeometry relative="1" as="geometry">
            <mxPoint x="-60" y="395" as="targetPoint" />
          </mxGeometry>
        </mxCell>
        <mxCell id="peqWukIWgn3L93WKMnT7-6" value="" style="html=1;shape=mxgraph.flowchart.annotation_2;align=left;labelPosition=right;strokeColor=#000000;strokeWidth=2;" parent="1" vertex="1">
          <mxGeometry x="-40" y="230" width="70" height="330" as="geometry" />
        </mxCell>
        <mxCell id="peqWukIWgn3L93WKMnT7-17" value="login" style="ellipse;whiteSpace=wrap;html=1;fillColor=#0050ef;fontColor=#ffffff;strokeColor=#0050ef;fontSize=14;fontStyle=1;strokeWidth=1;shadow=1;" parent="1" vertex="1">
          <mxGeometry x="199" y="-163" width="90" height="38" as="geometry" />
        </mxCell>
        <mxCell id="peqWukIWgn3L93WKMnT7-20" value="login&lt;br style=&quot;font-size: 14px;&quot;&gt;Sucessful" style="ellipse;whiteSpace=wrap;html=1;fillColor=#0050ef;fontColor=#ffffff;strokeColor=#0050ef;fontSize=14;fontStyle=1;strokeWidth=1;shadow=1;" parent="1" vertex="1">
          <mxGeometry x="379" y="-195" width="110" height="42" as="geometry" />
        </mxCell>
        <mxCell id="peqWukIWgn3L93WKMnT7-22" value="login&lt;br style=&quot;font-size: 14px;&quot;&gt;error" style="ellipse;whiteSpace=wrap;html=1;fillColor=#0050ef;fontColor=#ffffff;strokeColor=#0050ef;fontSize=14;fontStyle=1;strokeWidth=1;shadow=1;" parent="1" vertex="1">
          <mxGeometry x="366" y="-139" width="116" height="42" as="geometry" />
        </mxCell>
        <mxCell id="peqWukIWgn3L93WKMnT7-26" value="&amp;lt;&amp;lt;include&amp;gt;&amp;gt;" style="text;html=1;strokeColor=none;fillColor=none;align=center;verticalAlign=middle;whiteSpace=wrap;rounded=0;rotation=-15;fontSize=14;fontStyle=1;fontColor=#000000;strokeWidth=2;" parent="1" vertex="1">
          <mxGeometry x="301" y="-177.5" width="50" height="15" as="geometry" />
        </mxCell>
        <mxCell id="peqWukIWgn3L93WKMnT7-28" value="" style="endArrow=open;endSize=12;dashed=1;html=1;rounded=0;entryX=0.813;entryY=0.896;entryDx=0;entryDy=0;entryPerimeter=0;exitX=0.022;exitY=0.379;exitDx=0;exitDy=0;exitPerimeter=0;strokeColor=#000000;strokeWidth=2;" parent="1" source="peqWukIWgn3L93WKMnT7-22" target="peqWukIWgn3L93WKMnT7-17" edge="1">
          <mxGeometry width="160" relative="1" as="geometry">
            <mxPoint x="319" y="-68" as="sourcePoint" />
            <mxPoint x="479" y="-68" as="targetPoint" />
          </mxGeometry>
        </mxCell>
        <mxCell id="peqWukIWgn3L93WKMnT7-29" value="&amp;lt;&amp;lt;extend&amp;gt;&amp;gt;" style="text;html=1;strokeColor=none;fillColor=none;align=center;verticalAlign=middle;whiteSpace=wrap;rounded=0;rotation=0;fontSize=14;fontStyle=1;fontColor=#000000;strokeWidth=2;" parent="1" vertex="1">
          <mxGeometry x="309" y="-145" width="50" height="15" as="geometry" />
        </mxCell>
        <mxCell id="peqWukIWgn3L93WKMnT7-30" value="" style="endArrow=open;endSize=12;dashed=1;html=1;rounded=0;exitX=1;exitY=0.5;exitDx=0;exitDy=0;entryX=0.03;entryY=0.614;entryDx=0;entryDy=0;entryPerimeter=0;strokeColor=#000000;strokeWidth=2;" parent="1" source="peqWukIWgn3L93WKMnT7-17" target="peqWukIWgn3L93WKMnT7-20" edge="1">
          <mxGeometry width="160" relative="1" as="geometry">
            <mxPoint x="269" y="-18" as="sourcePoint" />
            <mxPoint x="429" y="-18" as="targetPoint" />
          </mxGeometry>
        </mxCell>
        <mxCell id="peqWukIWgn3L93WKMnT7-31" value="Register" style="ellipse;whiteSpace=wrap;html=1;fillColor=#0050ef;fontColor=#ffffff;strokeColor=#0050ef;fontSize=14;fontStyle=1;strokeWidth=1;shadow=1;" parent="1" vertex="1">
          <mxGeometry x="200" y="530" width="89" height="43" as="geometry" />
        </mxCell>
        <mxCell id="peqWukIWgn3L93WKMnT7-32" value="register&lt;br style=&quot;font-size: 14px;&quot;&gt;Sucessful" style="ellipse;whiteSpace=wrap;html=1;fillColor=#0050ef;fontColor=#ffffff;strokeColor=#0050ef;fontSize=14;fontStyle=1;strokeWidth=1;shadow=1;" parent="1" vertex="1">
          <mxGeometry x="378" y="504" width="111" height="50" as="geometry" />
        </mxCell>
        <mxCell id="peqWukIWgn3L93WKMnT7-33" value="register&lt;br style=&quot;font-size: 14px;&quot;&gt;error" style="ellipse;whiteSpace=wrap;html=1;fillColor=#0050ef;fontColor=#ffffff;strokeColor=#0050ef;fontSize=14;fontStyle=1;strokeWidth=1;shadow=1;" parent="1" vertex="1">
          <mxGeometry x="359" y="580" width="111" height="50" as="geometry" />
        </mxCell>
        <mxCell id="peqWukIWgn3L93WKMnT7-34" value="" style="endArrow=open;endSize=12;dashed=1;html=1;rounded=0;entryX=0.813;entryY=0.896;entryDx=0;entryDy=0;entryPerimeter=0;exitX=0.022;exitY=0.379;exitDx=0;exitDy=0;exitPerimeter=0;strokeColor=#000000;strokeWidth=2;" parent="1" source="peqWukIWgn3L93WKMnT7-33" target="peqWukIWgn3L93WKMnT7-31" edge="1">
          <mxGeometry width="160" relative="1" as="geometry">
            <mxPoint x="319" y="630" as="sourcePoint" />
            <mxPoint x="479" y="630" as="targetPoint" />
          </mxGeometry>
        </mxCell>
        <mxCell id="peqWukIWgn3L93WKMnT7-35" value="&amp;lt;&amp;lt;extend&amp;gt;&amp;gt;" style="text;html=1;strokeColor=none;fillColor=none;align=center;verticalAlign=middle;whiteSpace=wrap;rounded=0;rotation=15;fontSize=14;fontStyle=1;fontColor=#000000;strokeWidth=2;" parent="1" vertex="1">
          <mxGeometry x="308" y="567" width="50" height="15" as="geometry" />
        </mxCell>
        <mxCell id="peqWukIWgn3L93WKMnT7-36" value="&amp;lt;&amp;lt;include&amp;gt;&amp;gt;" style="text;html=1;strokeColor=none;fillColor=none;align=center;verticalAlign=middle;whiteSpace=wrap;rounded=0;rotation=-10;fontSize=14;fontStyle=1;fontColor=#000000;strokeWidth=2;" parent="1" vertex="1">
          <mxGeometry x="301" y="522.5" width="50" height="15" as="geometry" />
        </mxCell>
        <mxCell id="peqWukIWgn3L93WKMnT7-37" value="" style="endArrow=open;endSize=12;dashed=1;html=1;rounded=0;exitX=1;exitY=0.5;exitDx=0;exitDy=0;entryX=0.03;entryY=0.614;entryDx=0;entryDy=0;entryPerimeter=0;strokeColor=#000000;strokeWidth=2;" parent="1" source="peqWukIWgn3L93WKMnT7-31" target="peqWukIWgn3L93WKMnT7-32" edge="1">
          <mxGeometry width="160" relative="1" as="geometry">
            <mxPoint x="269" y="680" as="sourcePoint" />
            <mxPoint x="429" y="680" as="targetPoint" />
          </mxGeometry>
        </mxCell>
        <mxCell id="peqWukIWgn3L93WKMnT7-38" value="Friend" style="shape=umlActor;verticalLabelPosition=bottom;verticalAlign=top;html=1;fontStyle=1;fontSize=14;strokeWidth=2;strokeColor=#000000;fontColor=#1A1A1A;" parent="1" vertex="1">
          <mxGeometry x="988" y="147.75" width="30" height="60" as="geometry" />
        </mxCell>
        <mxCell id="peqWukIWgn3L93WKMnT7-39" value="Vet" style="shape=umlActor;verticalLabelPosition=bottom;verticalAlign=top;html=1;fontStyle=1;fontSize=14;strokeWidth=2;strokeColor=#000000;fontColor=#1A1A1A;" parent="1" vertex="1">
          <mxGeometry x="988" y="324" width="30" height="60" as="geometry" />
        </mxCell>
        <mxCell id="peqWukIWgn3L93WKMnT7-40" value="Trainer" style="shape=umlActor;verticalLabelPosition=bottom;verticalAlign=top;html=1;fontStyle=1;fontSize=14;strokeWidth=2;strokeColor=#000000;fontColor=#1A1A1A;" parent="1" vertex="1">
          <mxGeometry x="988" y="-30.5" width="30" height="60" as="geometry" />
        </mxCell>
        <mxCell id="peqWukIWgn3L93WKMnT7-49" value="&lt;font style=&quot;font-size: 14px;&quot;&gt;schedule appoiment with Vet&lt;/font&gt;" style="ellipse;whiteSpace=wrap;html=1;fillColor=#0050ef;fontColor=#ffffff;strokeColor=#0050ef;fontSize=14;fontStyle=1;strokeWidth=1;shadow=1;" parent="1" vertex="1">
          <mxGeometry x="190" y="-60" width="159" height="61.25" as="geometry" />
        </mxCell>
        <mxCell id="peqWukIWgn3L93WKMnT7-50" value="Tracking Pet" style="ellipse;whiteSpace=wrap;html=1;fillColor=#0050ef;fontColor=#ffffff;strokeColor=#0050ef;fontSize=14;fontStyle=1;strokeWidth=1;shadow=1;" parent="1" vertex="1">
          <mxGeometry x="289" width="150" height="50" as="geometry" />
        </mxCell>
        <mxCell id="peqWukIWgn3L93WKMnT7-51" value="Add Post" style="ellipse;whiteSpace=wrap;html=1;fillColor=#0050ef;fontColor=#ffffff;strokeColor=#0050ef;fontSize=14;fontStyle=1;strokeWidth=1;shadow=1;" parent="1" vertex="1">
          <mxGeometry x="600" y="253" width="153.38" height="57" as="geometry" />
        </mxCell>
        <mxCell id="peqWukIWgn3L93WKMnT7-52" value="Purchase Pet Products" style="ellipse;whiteSpace=wrap;html=1;fillColor=#0050ef;fontColor=#ffffff;strokeColor=#0050ef;fontSize=14;fontStyle=1;strokeWidth=1;shadow=1;" parent="1" vertex="1">
          <mxGeometry x="168" y="384" width="150" height="47" as="geometry" />
        </mxCell>
        <mxCell id="peqWukIWgn3L93WKMnT7-53" value="Receive Notifications" style="ellipse;whiteSpace=wrap;html=1;fillColor=#0050ef;fontColor=#ffffff;strokeColor=#0050ef;fontSize=14;fontStyle=1;strokeWidth=1;shadow=1;" parent="1" vertex="1">
          <mxGeometry x="237" y="270" width="153" height="60" as="geometry" />
        </mxCell>
        <mxCell id="peqWukIWgn3L93WKMnT7-54" value="Mention Homeless Pets" style="ellipse;whiteSpace=wrap;html=1;fillColor=#0050ef;fontColor=#ffffff;strokeColor=#0050ef;fontSize=14;fontStyle=1;strokeWidth=1;shadow=1;" parent="1" vertex="1">
          <mxGeometry x="679.38" y="180" width="150.62" height="60" as="geometry" />
        </mxCell>
        <mxCell id="peqWukIWgn3L93WKMnT7-55" value="Mention Shelters" style="ellipse;whiteSpace=wrap;html=1;fillColor=#0050ef;fontColor=#ffffff;strokeColor=#0050ef;fontSize=14;fontStyle=1;strokeWidth=1;shadow=1;" parent="1" vertex="1">
          <mxGeometry x="549" y="120" width="151" height="60" as="geometry" />
        </mxCell>
        <mxCell id="peqWukIWgn3L93WKMnT7-56" value="Purchase Insurance" style="ellipse;whiteSpace=wrap;html=1;fillColor=#0050ef;fontColor=#ffffff;strokeColor=#0050ef;fontSize=14;fontStyle=1;strokeWidth=1;shadow=1;" parent="1" vertex="1">
          <mxGeometry x="209" y="333" width="151" height="48" as="geometry" />
        </mxCell>
        <mxCell id="peqWukIWgn3L93WKMnT7-57" value="Pet Store" style="shape=umlActor;verticalLabelPosition=bottom;verticalAlign=top;html=1;fontStyle=1;fontSize=14;strokeWidth=2;strokeColor=#000000;fontColor=#1A1A1A;" parent="1" vertex="1">
          <mxGeometry x="988" y="470" width="30" height="60" as="geometry" />
        </mxCell>
        <mxCell id="peqWukIWgn3L93WKMnT7-58" value="Funeral shop" style="shape=umlActor;verticalLabelPosition=bottom;verticalAlign=top;html=1;fontStyle=1;fontSize=14;strokeWidth=2;strokeColor=#000000;fontColor=#1A1A1A;spacingTop=0;spacing=2;" parent="1" vertex="1">
          <mxGeometry x="988" y="-175" width="30" height="60" as="geometry" />
        </mxCell>
        <mxCell id="peqWukIWgn3L93WKMnT7-59" value="&amp;lt;&amp;lt;include&amp;gt;&amp;gt;" style="text;html=1;strokeColor=none;fillColor=none;align=center;verticalAlign=middle;whiteSpace=wrap;rounded=0;rotation=-15;fontSize=14;fontStyle=1;fontColor=#000000;strokeWidth=2;" parent="1" vertex="1">
          <mxGeometry x="361" y="-53.5" width="50" height="15" as="geometry" />
        </mxCell>
        <mxCell id="peqWukIWgn3L93WKMnT7-60" value="" style="endArrow=open;endSize=12;dashed=1;html=1;rounded=0;exitX=1;exitY=0.5;exitDx=0;exitDy=0;entryX=0.03;entryY=0.614;entryDx=0;entryDy=0;entryPerimeter=0;strokeColor=#000000;strokeWidth=2;" parent="1" target="peqWukIWgn3L93WKMnT7-61" edge="1">
          <mxGeometry width="160" relative="1" as="geometry">
            <mxPoint x="349" y="-25" as="sourcePoint" />
            <mxPoint x="489" y="100" as="targetPoint" />
          </mxGeometry>
        </mxCell>
        <mxCell id="peqWukIWgn3L93WKMnT7-61" value="Check available date and time" style="ellipse;whiteSpace=wrap;html=1;fillColor=#0050ef;fontColor=#ffffff;strokeColor=#0050ef;fontSize=14;fontStyle=1;strokeWidth=1;shadow=1;" parent="1" vertex="1">
          <mxGeometry x="431" y="-90" width="131" height="59.5" as="geometry" />
        </mxCell>
        <mxCell id="peqWukIWgn3L93WKMnT7-63" style="edgeStyle=orthogonalEdgeStyle;rounded=0;orthogonalLoop=1;jettySize=auto;html=1;strokeColor=#000000;strokeWidth=2;" parent="1" source="peqWukIWgn3L93WKMnT7-62" edge="1">
          <mxGeometry relative="1" as="geometry">
            <mxPoint x="350" y="-19" as="targetPoint" />
          </mxGeometry>
        </mxCell>
        <mxCell id="peqWukIWgn3L93WKMnT7-62" value="" style="html=1;shape=mxgraph.flowchart.annotation_2;align=left;labelPosition=right;strokeColor=#000000;strokeWidth=2;" parent="1" vertex="1">
          <mxGeometry x="549" y="-69" width="50" height="100" as="geometry" />
        </mxCell>
        <mxCell id="peqWukIWgn3L93WKMnT7-64" value="By Calling" style="ellipse;whiteSpace=wrap;html=1;fillColor=#0050ef;fontColor=#ffffff;strokeColor=#0050ef;fontSize=14;fontStyle=1;strokeWidth=1;shadow=1;" parent="1" vertex="1">
          <mxGeometry x="599" y="-90" width="110" height="41.25" as="geometry" />
        </mxCell>
        <mxCell id="peqWukIWgn3L93WKMnT7-65" value="By Email" style="ellipse;whiteSpace=wrap;html=1;fillColor=#0050ef;fontColor=#ffffff;strokeColor=#0050ef;fontSize=14;fontStyle=1;strokeWidth=1;shadow=1;" parent="1" vertex="1">
          <mxGeometry x="599" y="10" width="110" height="40" as="geometry" />
        </mxCell>
        <mxCell id="peqWukIWgn3L93WKMnT7-66" value="breed identify" style="ellipse;whiteSpace=wrap;html=1;fillColor=#0050ef;fontColor=#ffffff;strokeColor=#0050ef;fontSize=14;fontStyle=1;strokeWidth=1;shadow=1;" parent="1" vertex="1">
          <mxGeometry x="251" y="60" width="150" height="45" as="geometry" />
        </mxCell>
        <mxCell id="peqWukIWgn3L93WKMnT7-67" value="Skin disease identify" style="ellipse;whiteSpace=wrap;html=1;fillColor=#0050ef;fontColor=#ffffff;strokeColor=#0050ef;fontSize=14;fontStyle=1;strokeWidth=1;shadow=1;" parent="1" vertex="1">
          <mxGeometry x="211" y="110" width="159" height="50" as="geometry" />
        </mxCell>
        <mxCell id="peqWukIWgn3L93WKMnT7-68" value="Arrange pet Funeral" style="ellipse;whiteSpace=wrap;html=1;fillColor=#0050ef;fontColor=#ffffff;strokeColor=#0050ef;fontSize=14;fontStyle=1;strokeWidth=1;shadow=1;" parent="1" vertex="1">
          <mxGeometry x="720" y="-170" width="154.38" height="50" as="geometry" />
        </mxCell>
        <mxCell id="peqWukIWgn3L93WKMnT7-69" value="Contact Funeral shop" style="ellipse;whiteSpace=wrap;html=1;fillColor=#0050ef;fontColor=#ffffff;strokeColor=#0050ef;fontSize=14;fontStyle=1;strokeWidth=1;shadow=1;" parent="1" vertex="1">
          <mxGeometry x="379" y="110" width="161" height="59" as="geometry" />
        </mxCell>
        <mxCell id="peqWukIWgn3L93WKMnT7-70" value="Enroll Training session" style="ellipse;whiteSpace=wrap;html=1;fillColor=#0050ef;fontColor=#ffffff;strokeColor=#0050ef;fontSize=14;fontStyle=1;strokeWidth=1;shadow=1;" parent="1" vertex="1">
          <mxGeometry x="421" y="273.75" width="151" height="52.5" as="geometry" />
        </mxCell>
        <mxCell id="peqWukIWgn3L93WKMnT7-71" value="Arrange Training session" style="ellipse;whiteSpace=wrap;html=1;fillColor=#0050ef;fontColor=#ffffff;strokeColor=#0050ef;fontSize=14;fontStyle=1;strokeWidth=1;shadow=1;" parent="1" vertex="1">
          <mxGeometry x="750" y="-60" width="150" height="49.5" as="geometry" />
        </mxCell>
        <mxCell id="peqWukIWgn3L93WKMnT7-72" value="Sell Items" style="ellipse;whiteSpace=wrap;html=1;fillColor=#0050ef;fontColor=#ffffff;strokeColor=#0050ef;fontSize=14;fontStyle=1;strokeWidth=1;shadow=1;" parent="1" vertex="1">
          <mxGeometry x="680" y="470" width="150" height="50" as="geometry" />
        </mxCell>
        <mxCell id="peqWukIWgn3L93WKMnT7-75" style="edgeStyle=orthogonalEdgeStyle;rounded=0;orthogonalLoop=1;jettySize=auto;html=1;entryX=0.5;entryY=1;entryDx=0;entryDy=0;strokeColor=#000000;strokeWidth=2;" parent="1" source="peqWukIWgn3L93WKMnT7-73" target="peqWukIWgn3L93WKMnT7-72" edge="1">
          <mxGeometry relative="1" as="geometry" />
        </mxCell>
        <mxCell id="peqWukIWgn3L93WKMnT7-73" value="" style="html=1;shape=mxgraph.flowchart.annotation_2;align=left;labelPosition=right;rotation=90;strokeColor=#000000;strokeWidth=2;" parent="1" vertex="1">
          <mxGeometry x="724.38" y="479.38" width="60" height="180.25" as="geometry" />
        </mxCell>
        <mxCell id="peqWukIWgn3L93WKMnT7-76" value="Sell Pets Foods &lt;br style=&quot;font-size: 14px;&quot;&gt;and items" style="ellipse;whiteSpace=wrap;html=1;fillColor=#0050ef;fontColor=#ffffff;strokeColor=#0050ef;fontSize=14;fontStyle=1;strokeWidth=1;shadow=1;" parent="1" vertex="1">
          <mxGeometry x="590" y="597" width="149" height="50" as="geometry" />
        </mxCell>
        <mxCell id="peqWukIWgn3L93WKMnT7-77" value="Sell Pets" style="ellipse;whiteSpace=wrap;html=1;fillColor=#0050ef;fontColor=#ffffff;strokeColor=#0050ef;fontSize=14;fontStyle=1;strokeWidth=1;shadow=1;" parent="1" vertex="1">
          <mxGeometry x="770" y="600" width="150" height="50" as="geometry" />
        </mxCell>
        <mxCell id="peqWukIWgn3L93WKMnT7-78" value="Approve appoiments" style="ellipse;whiteSpace=wrap;html=1;fillColor=#0050ef;fontColor=#ffffff;strokeColor=#0050ef;fontSize=14;fontStyle=1;strokeWidth=1;shadow=1;" parent="1" vertex="1">
          <mxGeometry x="730" y="310" width="159" height="60" as="geometry" />
        </mxCell>
        <mxCell id="peqWukIWgn3L93WKMnT7-79" value="View appoiments" style="ellipse;whiteSpace=wrap;html=1;fillColor=#0050ef;fontColor=#ffffff;strokeColor=#0050ef;fontSize=14;fontStyle=1;strokeWidth=1;shadow=1;" parent="1" vertex="1">
          <mxGeometry x="740" y="393" width="150" height="47" as="geometry" />
        </mxCell>
        <mxCell id="peqWukIWgn3L93WKMnT7-80" value="View appoiments" style="ellipse;whiteSpace=wrap;html=1;fillColor=#0050ef;fontColor=#ffffff;strokeColor=#0050ef;fontSize=14;fontStyle=1;strokeWidth=1;shadow=1;" parent="1" vertex="1">
          <mxGeometry x="750" y="10" width="150" height="50" as="geometry" />
        </mxCell>
        <mxCell id="peqWukIWgn3L93WKMnT7-83" value="" style="endArrow=none;html=1;rounded=0;entryX=0.017;entryY=0.703;entryDx=0;entryDy=0;entryPerimeter=0;strokeColor=#000000;strokeWidth=2;" parent="1" target="peqWukIWgn3L93WKMnT7-17" edge="1">
          <mxGeometry width="50" height="50" relative="1" as="geometry">
            <mxPoint x="60" y="200" as="sourcePoint" />
            <mxPoint x="120" y="120" as="targetPoint" />
          </mxGeometry>
        </mxCell>
        <mxCell id="peqWukIWgn3L93WKMnT7-84" value="" style="endArrow=none;html=1;rounded=0;entryX=0;entryY=0.5;entryDx=0;entryDy=0;exitX=0.75;exitY=0.1;exitDx=0;exitDy=0;exitPerimeter=0;strokeColor=#000000;strokeWidth=2;" parent="1" source="peqWukIWgn3L93WKMnT7-1" target="peqWukIWgn3L93WKMnT7-49" edge="1">
          <mxGeometry width="50" height="50" relative="1" as="geometry">
            <mxPoint x="60" y="190" as="sourcePoint" />
            <mxPoint x="140" y="120" as="targetPoint" />
          </mxGeometry>
        </mxCell>
        <mxCell id="peqWukIWgn3L93WKMnT7-85" value="" style="endArrow=none;html=1;rounded=0;entryX=0;entryY=0.5;entryDx=0;entryDy=0;exitX=0.75;exitY=0.1;exitDx=0;exitDy=0;exitPerimeter=0;strokeColor=#000000;strokeWidth=2;" parent="1" source="peqWukIWgn3L93WKMnT7-1" target="peqWukIWgn3L93WKMnT7-50" edge="1">
          <mxGeometry width="50" height="50" relative="1" as="geometry">
            <mxPoint x="90" y="170" as="sourcePoint" />
            <mxPoint x="140" y="120" as="targetPoint" />
          </mxGeometry>
        </mxCell>
        <mxCell id="peqWukIWgn3L93WKMnT7-86" value="" style="endArrow=none;html=1;rounded=0;entryX=0;entryY=0.5;entryDx=0;entryDy=0;exitX=0.75;exitY=0.1;exitDx=0;exitDy=0;exitPerimeter=0;strokeColor=#000000;strokeWidth=2;" parent="1" source="peqWukIWgn3L93WKMnT7-1" target="peqWukIWgn3L93WKMnT7-66" edge="1">
          <mxGeometry width="50" height="50" relative="1" as="geometry">
            <mxPoint x="140" y="190" as="sourcePoint" />
            <mxPoint x="190" y="140" as="targetPoint" />
          </mxGeometry>
        </mxCell>
        <mxCell id="peqWukIWgn3L93WKMnT7-87" value="" style="endArrow=none;html=1;rounded=0;entryX=0;entryY=0.5;entryDx=0;entryDy=0;exitX=0.75;exitY=0.1;exitDx=0;exitDy=0;exitPerimeter=0;strokeColor=#000000;strokeWidth=2;" parent="1" source="peqWukIWgn3L93WKMnT7-1" target="peqWukIWgn3L93WKMnT7-67" edge="1">
          <mxGeometry width="50" height="50" relative="1" as="geometry">
            <mxPoint x="140" y="210" as="sourcePoint" />
            <mxPoint x="190" y="160" as="targetPoint" />
          </mxGeometry>
        </mxCell>
        <mxCell id="peqWukIWgn3L93WKMnT7-88" value="" style="endArrow=none;html=1;rounded=0;entryX=0;entryY=1;entryDx=0;entryDy=0;exitX=0.75;exitY=0.1;exitDx=0;exitDy=0;exitPerimeter=0;strokeColor=#000000;strokeWidth=2;" parent="1" source="peqWukIWgn3L93WKMnT7-1" target="peqWukIWgn3L93WKMnT7-69" edge="1">
          <mxGeometry width="50" height="50" relative="1" as="geometry">
            <mxPoint x="180" y="260" as="sourcePoint" />
            <mxPoint x="230" y="210" as="targetPoint" />
          </mxGeometry>
        </mxCell>
        <mxCell id="peqWukIWgn3L93WKMnT7-89" value="" style="endArrow=none;html=1;rounded=0;entryX=0.06;entryY=0.783;entryDx=0;entryDy=0;exitX=0.5;exitY=0.5;exitDx=0;exitDy=0;exitPerimeter=0;entryPerimeter=0;strokeColor=#000000;strokeWidth=2;" parent="1" source="peqWukIWgn3L93WKMnT7-1" target="peqWukIWgn3L93WKMnT7-55" edge="1">
          <mxGeometry width="50" height="50" relative="1" as="geometry">
            <mxPoint x="210" y="260" as="sourcePoint" />
            <mxPoint x="260" y="210" as="targetPoint" />
          </mxGeometry>
        </mxCell>
        <mxCell id="peqWukIWgn3L93WKMnT7-90" value="" style="endArrow=none;html=1;rounded=0;entryX=0;entryY=0.5;entryDx=0;entryDy=0;exitX=0.5;exitY=0.5;exitDx=0;exitDy=0;exitPerimeter=0;strokeColor=#000000;strokeWidth=2;" parent="1" source="peqWukIWgn3L93WKMnT7-1" target="peqWukIWgn3L93WKMnT7-54" edge="1">
          <mxGeometry width="50" height="50" relative="1" as="geometry">
            <mxPoint x="450" y="250" as="sourcePoint" />
            <mxPoint x="500" y="200" as="targetPoint" />
          </mxGeometry>
        </mxCell>
        <mxCell id="peqWukIWgn3L93WKMnT7-91" value="" style="endArrow=none;html=1;rounded=0;entryX=0;entryY=0;entryDx=0;entryDy=0;exitX=0.5;exitY=0.5;exitDx=0;exitDy=0;exitPerimeter=0;strokeColor=#000000;strokeWidth=2;" parent="1" source="peqWukIWgn3L93WKMnT7-1" target="peqWukIWgn3L93WKMnT7-51" edge="1">
          <mxGeometry width="50" height="50" relative="1" as="geometry">
            <mxPoint x="360" y="290" as="sourcePoint" />
            <mxPoint x="410" y="240" as="targetPoint" />
          </mxGeometry>
        </mxCell>
        <mxCell id="peqWukIWgn3L93WKMnT7-92" value="" style="endArrow=none;html=1;rounded=0;entryX=0.197;entryY=0.084;entryDx=0;entryDy=0;entryPerimeter=0;exitX=0.5;exitY=0.5;exitDx=0;exitDy=0;exitPerimeter=0;strokeColor=#000000;strokeWidth=2;" parent="1" source="peqWukIWgn3L93WKMnT7-1" target="peqWukIWgn3L93WKMnT7-70" edge="1">
          <mxGeometry width="50" height="50" relative="1" as="geometry">
            <mxPoint x="140" y="310" as="sourcePoint" />
            <mxPoint x="190" y="260" as="targetPoint" />
          </mxGeometry>
        </mxCell>
        <mxCell id="peqWukIWgn3L93WKMnT7-93" value="" style="endArrow=none;html=1;rounded=0;exitX=0.5;exitY=0.5;exitDx=0;exitDy=0;exitPerimeter=0;entryX=0.261;entryY=0.1;entryDx=0;entryDy=0;entryPerimeter=0;strokeColor=#000000;strokeWidth=2;" parent="1" source="peqWukIWgn3L93WKMnT7-1" target="peqWukIWgn3L93WKMnT7-53" edge="1">
          <mxGeometry width="50" height="50" relative="1" as="geometry">
            <mxPoint x="120" y="330" as="sourcePoint" />
            <mxPoint x="170" y="280" as="targetPoint" />
          </mxGeometry>
        </mxCell>
        <mxCell id="peqWukIWgn3L93WKMnT7-94" value="" style="endArrow=none;html=1;rounded=0;exitX=0.5;exitY=0.5;exitDx=0;exitDy=0;exitPerimeter=0;strokeColor=#000000;strokeWidth=2;" parent="1" source="peqWukIWgn3L93WKMnT7-1" target="peqWukIWgn3L93WKMnT7-56" edge="1">
          <mxGeometry width="50" height="50" relative="1" as="geometry">
            <mxPoint x="120" y="360" as="sourcePoint" />
            <mxPoint x="170" y="310" as="targetPoint" />
          </mxGeometry>
        </mxCell>
        <mxCell id="peqWukIWgn3L93WKMnT7-95" value="" style="endArrow=none;html=1;rounded=0;entryX=0.5;entryY=0.5;entryDx=0;entryDy=0;entryPerimeter=0;exitX=0.267;exitY=0;exitDx=0;exitDy=0;exitPerimeter=0;strokeColor=#000000;strokeWidth=2;" parent="1" source="peqWukIWgn3L93WKMnT7-52" target="peqWukIWgn3L93WKMnT7-1" edge="1">
          <mxGeometry width="50" height="50" relative="1" as="geometry">
            <mxPoint x="120" y="380" as="sourcePoint" />
            <mxPoint x="170" y="330" as="targetPoint" />
          </mxGeometry>
        </mxCell>
        <mxCell id="peqWukIWgn3L93WKMnT7-96" value="" style="endArrow=none;html=1;rounded=0;exitX=0.5;exitY=0.5;exitDx=0;exitDy=0;exitPerimeter=0;entryX=0;entryY=0.5;entryDx=0;entryDy=0;strokeColor=#000000;strokeWidth=2;" parent="1" source="peqWukIWgn3L93WKMnT7-3" target="peqWukIWgn3L93WKMnT7-31" edge="1">
          <mxGeometry width="50" height="50" relative="1" as="geometry">
            <mxPoint x="120" y="570" as="sourcePoint" />
            <mxPoint x="170" y="520" as="targetPoint" />
          </mxGeometry>
        </mxCell>
        <mxCell id="peqWukIWgn3L93WKMnT7-97" value="" style="endArrow=none;html=1;rounded=0;exitX=1;exitY=0.5;exitDx=0;exitDy=0;entryX=0.5;entryY=0.5;entryDx=0;entryDy=0;entryPerimeter=0;strokeColor=#000000;strokeWidth=2;" parent="1" source="peqWukIWgn3L93WKMnT7-68" target="peqWukIWgn3L93WKMnT7-58" edge="1">
          <mxGeometry width="50" height="50" relative="1" as="geometry">
            <mxPoint x="900" y="-170" as="sourcePoint" />
            <mxPoint x="950" y="-220" as="targetPoint" />
          </mxGeometry>
        </mxCell>
        <mxCell id="peqWukIWgn3L93WKMnT7-98" value="" style="endArrow=none;html=1;rounded=0;exitX=1;exitY=0.5;exitDx=0;exitDy=0;entryX=0.5;entryY=0.5;entryDx=0;entryDy=0;entryPerimeter=0;strokeColor=#000000;strokeWidth=2;" parent="1" source="peqWukIWgn3L93WKMnT7-71" target="peqWukIWgn3L93WKMnT7-40" edge="1">
          <mxGeometry width="50" height="50" relative="1" as="geometry">
            <mxPoint x="870" y="110" as="sourcePoint" />
            <mxPoint x="920" y="60" as="targetPoint" />
          </mxGeometry>
        </mxCell>
        <mxCell id="peqWukIWgn3L93WKMnT7-99" value="" style="endArrow=none;html=1;rounded=0;exitX=1;exitY=0.5;exitDx=0;exitDy=0;entryX=0.5;entryY=0.5;entryDx=0;entryDy=0;entryPerimeter=0;strokeColor=#000000;strokeWidth=2;" parent="1" source="peqWukIWgn3L93WKMnT7-80" target="peqWukIWgn3L93WKMnT7-40" edge="1">
          <mxGeometry width="50" height="50" relative="1" as="geometry">
            <mxPoint x="870" y="120" as="sourcePoint" />
            <mxPoint x="920" y="70" as="targetPoint" />
          </mxGeometry>
        </mxCell>
        <mxCell id="peqWukIWgn3L93WKMnT7-100" value="" style="endArrow=none;html=1;rounded=0;exitX=1;exitY=0.5;exitDx=0;exitDy=0;entryX=0.5;entryY=0.5;entryDx=0;entryDy=0;entryPerimeter=0;strokeColor=#000000;strokeWidth=2;" parent="1" source="peqWukIWgn3L93WKMnT7-55" target="peqWukIWgn3L93WKMnT7-38" edge="1">
          <mxGeometry width="50" height="50" relative="1" as="geometry">
            <mxPoint x="850" y="170" as="sourcePoint" />
            <mxPoint x="900" y="120" as="targetPoint" />
          </mxGeometry>
        </mxCell>
        <mxCell id="peqWukIWgn3L93WKMnT7-101" value="" style="endArrow=none;html=1;rounded=0;entryX=0.5;entryY=0.5;entryDx=0;entryDy=0;entryPerimeter=0;exitX=0.979;exitY=0.395;exitDx=0;exitDy=0;exitPerimeter=0;strokeColor=#000000;strokeWidth=2;" parent="1" source="peqWukIWgn3L93WKMnT7-54" target="peqWukIWgn3L93WKMnT7-38" edge="1">
          <mxGeometry width="50" height="50" relative="1" as="geometry">
            <mxPoint x="690" y="220" as="sourcePoint" />
            <mxPoint x="740" y="170" as="targetPoint" />
          </mxGeometry>
        </mxCell>
        <mxCell id="peqWukIWgn3L93WKMnT7-102" value="" style="endArrow=none;html=1;rounded=0;exitX=1;exitY=0.5;exitDx=0;exitDy=0;entryX=0.5;entryY=0.5;entryDx=0;entryDy=0;entryPerimeter=0;strokeColor=#000000;strokeWidth=2;" parent="1" source="peqWukIWgn3L93WKMnT7-51" target="peqWukIWgn3L93WKMnT7-38" edge="1">
          <mxGeometry width="50" height="50" relative="1" as="geometry">
            <mxPoint x="820" y="300" as="sourcePoint" />
            <mxPoint x="870" y="250" as="targetPoint" />
          </mxGeometry>
        </mxCell>
        <mxCell id="peqWukIWgn3L93WKMnT7-103" value="" style="endArrow=none;html=1;rounded=0;exitX=1;exitY=0.5;exitDx=0;exitDy=0;entryX=0.5;entryY=0.5;entryDx=0;entryDy=0;entryPerimeter=0;strokeColor=#000000;strokeWidth=2;" parent="1" source="peqWukIWgn3L93WKMnT7-78" target="peqWukIWgn3L93WKMnT7-39" edge="1">
          <mxGeometry width="50" height="50" relative="1" as="geometry">
            <mxPoint x="920" y="340" as="sourcePoint" />
            <mxPoint x="970" y="290" as="targetPoint" />
          </mxGeometry>
        </mxCell>
        <mxCell id="peqWukIWgn3L93WKMnT7-104" value="" style="endArrow=none;html=1;rounded=0;exitX=1;exitY=0.5;exitDx=0;exitDy=0;entryX=0.5;entryY=0.5;entryDx=0;entryDy=0;entryPerimeter=0;strokeColor=#000000;strokeWidth=2;" parent="1" source="peqWukIWgn3L93WKMnT7-79" target="peqWukIWgn3L93WKMnT7-39" edge="1">
          <mxGeometry width="50" height="50" relative="1" as="geometry">
            <mxPoint x="900" y="450" as="sourcePoint" />
            <mxPoint x="950" y="400" as="targetPoint" />
          </mxGeometry>
        </mxCell>
        <mxCell id="peqWukIWgn3L93WKMnT7-105" value="" style="endArrow=none;html=1;rounded=0;exitX=1;exitY=0.5;exitDx=0;exitDy=0;entryX=0.5;entryY=0.5;entryDx=0;entryDy=0;entryPerimeter=0;strokeColor=#000000;strokeWidth=2;" parent="1" source="peqWukIWgn3L93WKMnT7-72" target="peqWukIWgn3L93WKMnT7-57" edge="1">
          <mxGeometry width="50" height="50" relative="1" as="geometry">
            <mxPoint x="880" y="520" as="sourcePoint" />
            <mxPoint x="930" y="470" as="targetPoint" />
          </mxGeometry>
        </mxCell>
        <mxCell id="peqWukIWgn3L93WKMnT7-109" value="" style="endArrow=open;endSize=12;dashed=1;html=1;rounded=0;exitX=0.748;exitY=0.045;exitDx=0;exitDy=0;exitPerimeter=0;entryX=0.055;entryY=0.72;entryDx=0;entryDy=0;entryPerimeter=0;strokeColor=#000000;strokeWidth=2;" parent="1" source="peqWukIWgn3L93WKMnT7-32" target="peqWukIWgn3L93WKMnT7-111" edge="1">
          <mxGeometry width="160" relative="1" as="geometry">
            <mxPoint x="439" y="484" as="sourcePoint" />
            <mxPoint x="520" y="474" as="targetPoint" />
          </mxGeometry>
        </mxCell>
        <mxCell id="peqWukIWgn3L93WKMnT7-110" value="&amp;lt;&amp;lt;include&amp;gt;&amp;gt;" style="text;html=1;strokeColor=none;fillColor=none;align=center;verticalAlign=middle;whiteSpace=wrap;rounded=0;rotation=-20;fontSize=14;fontStyle=1;fontColor=#000000;strokeWidth=2;" parent="1" vertex="1">
          <mxGeometry x="456" y="477.5" width="50" height="15" as="geometry" />
        </mxCell>
        <mxCell id="peqWukIWgn3L93WKMnT7-111" value="login" style="ellipse;whiteSpace=wrap;html=1;fillColor=#0050ef;fontColor=#ffffff;strokeColor=#0050ef;fontSize=14;fontStyle=1;strokeWidth=1;shadow=1;" parent="1" vertex="1">
          <mxGeometry x="534" y="444" width="110" height="42" as="geometry" />
        </mxCell>
        <mxCell id="L6oSHJMiZWYgVflE6wv4-4" value="&amp;lt;&amp;lt;include&amp;gt;&amp;gt;" style="text;html=1;strokeColor=none;fillColor=none;align=center;verticalAlign=middle;whiteSpace=wrap;rounded=0;rotation=-5;fontSize=14;fontStyle=1;fontColor=#000000;strokeWidth=2;" vertex="1" parent="1">
          <mxGeometry x="511" y="-197.5" width="50" height="15" as="geometry" />
        </mxCell>
        <mxCell id="L6oSHJMiZWYgVflE6wv4-5" value="" style="endArrow=open;endSize=12;dashed=1;html=1;rounded=0;exitX=1;exitY=0.5;exitDx=0;exitDy=0;entryX=0.03;entryY=0.614;entryDx=0;entryDy=0;entryPerimeter=0;strokeColor=#000000;strokeWidth=2;" edge="1" target="L6oSHJMiZWYgVflE6wv4-6" parent="1" source="peqWukIWgn3L93WKMnT7-20">
          <mxGeometry width="160" relative="1" as="geometry">
            <mxPoint x="503" y="-156" as="sourcePoint" />
            <mxPoint x="643" y="-30" as="targetPoint" />
          </mxGeometry>
        </mxCell>
        <mxCell id="L6oSHJMiZWYgVflE6wv4-6" value="Dash Board" style="ellipse;whiteSpace=wrap;html=1;fillColor=#0050ef;fontColor=#ffffff;strokeColor=#0050ef;fontSize=14;fontStyle=1;strokeWidth=1;shadow=1;" vertex="1" parent="1">
          <mxGeometry x="593" y="-207" width="110" height="42" as="geometry" />
        </mxCell>
        <mxCell id="L6oSHJMiZWYgVflE6wv4-7" value="&amp;lt;&amp;lt;include&amp;gt;&amp;gt;" style="text;html=1;strokeColor=none;fillColor=none;align=center;verticalAlign=middle;whiteSpace=wrap;rounded=0;rotation=-55;fontSize=14;fontStyle=1;fontColor=#000000;strokeWidth=2;" vertex="1" parent="1">
          <mxGeometry x="558" y="400" width="50" height="15" as="geometry" />
        </mxCell>
        <mxCell id="L6oSHJMiZWYgVflE6wv4-8" value="" style="endArrow=open;endSize=12;dashed=1;html=1;rounded=0;exitX=0.385;exitY=0.015;exitDx=0;exitDy=0;entryX=0.03;entryY=0.614;entryDx=0;entryDy=0;entryPerimeter=0;strokeColor=#000000;strokeWidth=2;exitPerimeter=0;" edge="1" target="L6oSHJMiZWYgVflE6wv4-9" parent="1" source="peqWukIWgn3L93WKMnT7-111">
          <mxGeometry width="160" relative="1" as="geometry">
            <mxPoint x="495" y="401" as="sourcePoint" />
            <mxPoint x="649" y="545" as="targetPoint" />
          </mxGeometry>
        </mxCell>
        <mxCell id="L6oSHJMiZWYgVflE6wv4-9" value="Dash Board" style="ellipse;whiteSpace=wrap;html=1;fillColor=#0050ef;fontColor=#ffffff;strokeColor=#0050ef;fontSize=14;fontStyle=1;strokeWidth=1;shadow=1;" vertex="1" parent="1">
          <mxGeometry x="621.69" y="356" width="110" height="42" as="geometry" />
        </mxCell>
        <mxCell id="L6oSHJMiZWYgVflE6wv4-13" value="Login" style="ellipse;whiteSpace=wrap;html=1;fillColor=#0050ef;fontColor=#ffffff;strokeColor=#0050ef;fontSize=14;fontStyle=1;strokeWidth=1;shadow=1;" vertex="1" parent="1">
          <mxGeometry x="148" y="967" width="89" height="43" as="geometry" />
        </mxCell>
        <mxCell id="L6oSHJMiZWYgVflE6wv4-14" value="&amp;lt;&amp;lt;include&amp;gt;&amp;gt;" style="text;html=1;strokeColor=none;fillColor=none;align=center;verticalAlign=middle;whiteSpace=wrap;rounded=0;rotation=-60;fontSize=14;fontStyle=1;fontColor=#000000;strokeWidth=2;" vertex="1" parent="1">
          <mxGeometry x="192.99999999999997" y="886" width="50" height="15" as="geometry" />
        </mxCell>
        <mxCell id="L6oSHJMiZWYgVflE6wv4-15" value="&amp;lt;&amp;lt;extend&amp;gt;&amp;gt;" style="text;html=1;strokeColor=none;fillColor=none;align=center;verticalAlign=middle;whiteSpace=wrap;rounded=0;rotation=-30;fontSize=14;fontStyle=1;fontColor=#000000;strokeWidth=2;" vertex="1" parent="1">
          <mxGeometry x="265.5" y="913" width="50" height="15" as="geometry" />
        </mxCell>
        <mxCell id="L6oSHJMiZWYgVflE6wv4-16" value="" style="endArrow=open;endSize=12;dashed=1;html=1;rounded=0;exitX=0.631;exitY=-0.042;exitDx=0;exitDy=0;entryX=0.03;entryY=0.614;entryDx=0;entryDy=0;entryPerimeter=0;strokeColor=#000000;strokeWidth=2;exitPerimeter=0;" edge="1" source="L6oSHJMiZWYgVflE6wv4-13" target="L6oSHJMiZWYgVflE6wv4-19" parent="1">
          <mxGeometry width="160" relative="1" as="geometry">
            <mxPoint x="236.65" y="1066" as="sourcePoint" />
            <mxPoint x="396.65" y="1066" as="targetPoint" />
          </mxGeometry>
        </mxCell>
        <mxCell id="L6oSHJMiZWYgVflE6wv4-17" value="" style="endArrow=open;endSize=12;dashed=1;html=1;rounded=0;entryX=1;entryY=0;entryDx=0;entryDy=0;exitX=0.026;exitY=0.726;exitDx=0;exitDy=0;exitPerimeter=0;strokeColor=#000000;strokeWidth=2;" edge="1" source="L6oSHJMiZWYgVflE6wv4-18" target="L6oSHJMiZWYgVflE6wv4-13" parent="1">
          <mxGeometry width="160" relative="1" as="geometry">
            <mxPoint x="286.65" y="1016" as="sourcePoint" />
            <mxPoint x="446.65" y="1016" as="targetPoint" />
          </mxGeometry>
        </mxCell>
        <mxCell id="L6oSHJMiZWYgVflE6wv4-18" value="login&lt;br style=&quot;font-size: 14px;&quot;&gt;error" style="ellipse;whiteSpace=wrap;html=1;fillColor=#0050ef;fontColor=#ffffff;strokeColor=#0050ef;fontSize=14;fontStyle=1;strokeWidth=1;shadow=1;" vertex="1" parent="1">
          <mxGeometry x="363.5" y="863" width="111" height="50" as="geometry" />
        </mxCell>
        <mxCell id="L6oSHJMiZWYgVflE6wv4-19" value="login&lt;br style=&quot;font-size: 14px;&quot;&gt;Sucessful" style="ellipse;whiteSpace=wrap;html=1;fillColor=#0050ef;fontColor=#ffffff;strokeColor=#0050ef;fontSize=14;fontStyle=1;strokeWidth=1;shadow=1;" vertex="1" parent="1">
          <mxGeometry x="273" y="786" width="111" height="50" as="geometry" />
        </mxCell>
        <mxCell id="L6oSHJMiZWYgVflE6wv4-20" value="&amp;lt;&amp;lt;include&amp;gt;&amp;gt;" style="text;html=1;strokeColor=none;fillColor=none;align=center;verticalAlign=middle;whiteSpace=wrap;rounded=0;rotation=-10;fontSize=14;fontStyle=1;fontColor=#000000;strokeWidth=2;" vertex="1" parent="1">
          <mxGeometry x="385" y="751" width="50" height="15" as="geometry" />
        </mxCell>
        <mxCell id="L6oSHJMiZWYgVflE6wv4-21" value="" style="endArrow=open;endSize=12;dashed=1;html=1;rounded=0;exitX=0.748;exitY=0.045;exitDx=0;exitDy=0;exitPerimeter=0;entryX=0.055;entryY=0.72;entryDx=0;entryDy=0;entryPerimeter=0;strokeColor=#000000;strokeWidth=2;" edge="1" source="L6oSHJMiZWYgVflE6wv4-19" target="L6oSHJMiZWYgVflE6wv4-22" parent="1">
          <mxGeometry width="160" relative="1" as="geometry">
            <mxPoint x="271.5" y="740" as="sourcePoint" />
            <mxPoint x="352.5" y="730" as="targetPoint" />
          </mxGeometry>
        </mxCell>
        <mxCell id="L6oSHJMiZWYgVflE6wv4-22" value="Admin Dash Board" style="ellipse;whiteSpace=wrap;html=1;fillColor=#0050ef;fontColor=#ffffff;strokeColor=#0050ef;fontSize=14;fontStyle=1;strokeWidth=1;shadow=1;" vertex="1" parent="1">
          <mxGeometry x="504" y="726" width="110" height="42" as="geometry" />
        </mxCell>
        <mxCell id="L6oSHJMiZWYgVflE6wv4-26" value="Edit dash board" style="ellipse;whiteSpace=wrap;html=1;fillColor=#0050ef;fontColor=#ffffff;strokeColor=#0050ef;fontSize=14;fontStyle=1;strokeWidth=1;shadow=1;" vertex="1" parent="1">
          <mxGeometry x="530" y="869" width="127" height="49" as="geometry" />
        </mxCell>
        <mxCell id="L6oSHJMiZWYgVflE6wv4-27" value="Approve Content" style="ellipse;whiteSpace=wrap;html=1;fillColor=#0050ef;fontColor=#ffffff;strokeColor=#0050ef;fontSize=14;fontStyle=1;strokeWidth=1;shadow=1;" vertex="1" parent="1">
          <mxGeometry x="465.5" y="952" width="141" height="45" as="geometry" />
        </mxCell>
        <mxCell id="L6oSHJMiZWYgVflE6wv4-28" value="Monitor Application Performance" style="ellipse;whiteSpace=wrap;html=1;fillColor=#0050ef;fontColor=#ffffff;strokeColor=#0050ef;fontSize=14;fontStyle=1;strokeWidth=1;shadow=1;" vertex="1" parent="1">
          <mxGeometry x="616" y="979" width="154" height="55" as="geometry" />
        </mxCell>
        <mxCell id="L6oSHJMiZWYgVflE6wv4-29" value="Manage Application Settings" style="ellipse;whiteSpace=wrap;html=1;fillColor=#0050ef;fontColor=#ffffff;strokeColor=#0050ef;fontSize=14;fontStyle=1;strokeWidth=1;shadow=1;" vertex="1" parent="1">
          <mxGeometry x="530" y="1039" width="156" height="57" as="geometry" />
        </mxCell>
        <mxCell id="L6oSHJMiZWYgVflE6wv4-30" value="Provide Support and Assistance for user" style="ellipse;whiteSpace=wrap;html=1;fillColor=#0050ef;fontColor=#ffffff;strokeColor=#0050ef;fontSize=14;fontStyle=1;strokeWidth=1;shadow=1;" vertex="1" parent="1">
          <mxGeometry x="405" y="1100" width="170" height="63" as="geometry" />
        </mxCell>
        <mxCell id="L6oSHJMiZWYgVflE6wv4-31" value="Generate Reports &lt;br&gt;and Analytics" style="ellipse;whiteSpace=wrap;html=1;fillColor=#0050ef;fontColor=#ffffff;strokeColor=#0050ef;fontSize=14;fontStyle=1;strokeWidth=1;shadow=1;" vertex="1" parent="1">
          <mxGeometry x="511" y="1170" width="170" height="63" as="geometry" />
        </mxCell>
        <mxCell id="L6oSHJMiZWYgVflE6wv4-32" value="Moderate User &lt;br&gt;Activity" style="ellipse;whiteSpace=wrap;html=1;fillColor=#0050ef;fontColor=#ffffff;strokeColor=#0050ef;fontSize=14;fontStyle=1;strokeWidth=1;shadow=1;" vertex="1" parent="1">
          <mxGeometry x="363.5" y="1222" width="170" height="63" as="geometry" />
        </mxCell>
        <mxCell id="L6oSHJMiZWYgVflE6wv4-39" value="Admin" style="shape=umlActor;verticalLabelPosition=bottom;verticalAlign=top;html=1;fontStyle=1;fontSize=14;strokeWidth=2;strokeColor=#000000;fontColor=#1A1A1A;" vertex="1" parent="1">
          <mxGeometry x="50" y="1044" width="30" height="60" as="geometry" />
        </mxCell>
        <mxCell id="L6oSHJMiZWYgVflE6wv4-40" value="" style="endArrow=none;html=1;rounded=0;exitX=0.5;exitY=0.5;exitDx=0;exitDy=0;exitPerimeter=0;entryX=0.4;entryY=0.991;entryDx=0;entryDy=0;strokeColor=#000000;strokeWidth=2;entryPerimeter=0;" edge="1" parent="1" source="L6oSHJMiZWYgVflE6wv4-39" target="L6oSHJMiZWYgVflE6wv4-13">
          <mxGeometry width="50" height="50" relative="1" as="geometry">
            <mxPoint x="-40" y="880.5" as="sourcePoint" />
            <mxPoint x="95" y="877.5" as="targetPoint" />
          </mxGeometry>
        </mxCell>
        <mxCell id="L6oSHJMiZWYgVflE6wv4-41" value="" style="endArrow=none;html=1;rounded=0;exitX=0.5;exitY=0.5;exitDx=0;exitDy=0;exitPerimeter=0;entryX=0.045;entryY=0.68;entryDx=0;entryDy=0;strokeColor=#000000;strokeWidth=2;entryPerimeter=0;" edge="1" parent="1" source="L6oSHJMiZWYgVflE6wv4-39" target="L6oSHJMiZWYgVflE6wv4-26">
          <mxGeometry width="50" height="50" relative="1" as="geometry">
            <mxPoint x="193" y="1199.39" as="sourcePoint" />
            <mxPoint x="322" y="1039.39" as="targetPoint" />
          </mxGeometry>
        </mxCell>
        <mxCell id="L6oSHJMiZWYgVflE6wv4-42" value="" style="endArrow=none;html=1;rounded=0;exitX=0.5;exitY=0.5;exitDx=0;exitDy=0;exitPerimeter=0;entryX=0;entryY=0.5;entryDx=0;entryDy=0;strokeColor=#000000;strokeWidth=2;" edge="1" parent="1" source="L6oSHJMiZWYgVflE6wv4-39" target="L6oSHJMiZWYgVflE6wv4-28">
          <mxGeometry width="50" height="50" relative="1" as="geometry">
            <mxPoint x="315.5" y="1262" as="sourcePoint" />
            <mxPoint x="444.5" y="1102" as="targetPoint" />
          </mxGeometry>
        </mxCell>
        <mxCell id="L6oSHJMiZWYgVflE6wv4-43" value="" style="endArrow=none;html=1;rounded=0;exitX=0.5;exitY=0.5;exitDx=0;exitDy=0;exitPerimeter=0;entryX=0.066;entryY=0.29;entryDx=0;entryDy=0;strokeColor=#000000;strokeWidth=2;entryPerimeter=0;" edge="1" parent="1" source="L6oSHJMiZWYgVflE6wv4-39" target="L6oSHJMiZWYgVflE6wv4-29">
          <mxGeometry width="50" height="50" relative="1" as="geometry">
            <mxPoint x="347.5" y="1286" as="sourcePoint" />
            <mxPoint x="476.5" y="1126" as="targetPoint" />
          </mxGeometry>
        </mxCell>
        <mxCell id="L6oSHJMiZWYgVflE6wv4-44" value="" style="endArrow=none;html=1;rounded=0;exitX=0.5;exitY=0.5;exitDx=0;exitDy=0;exitPerimeter=0;entryX=0;entryY=0.5;entryDx=0;entryDy=0;strokeColor=#000000;strokeWidth=2;" edge="1" parent="1" source="L6oSHJMiZWYgVflE6wv4-39" target="L6oSHJMiZWYgVflE6wv4-27">
          <mxGeometry width="50" height="50" relative="1" as="geometry">
            <mxPoint x="222" y="1263" as="sourcePoint" />
            <mxPoint x="351" y="1103" as="targetPoint" />
          </mxGeometry>
        </mxCell>
        <mxCell id="L6oSHJMiZWYgVflE6wv4-45" value="" style="endArrow=none;html=1;rounded=0;exitX=0.5;exitY=0.5;exitDx=0;exitDy=0;exitPerimeter=0;entryX=0.026;entryY=0.403;entryDx=0;entryDy=0;strokeColor=#000000;strokeWidth=2;entryPerimeter=0;" edge="1" parent="1" source="L6oSHJMiZWYgVflE6wv4-39" target="L6oSHJMiZWYgVflE6wv4-30">
          <mxGeometry width="50" height="50" relative="1" as="geometry">
            <mxPoint x="221.75" y="1407" as="sourcePoint" />
            <mxPoint x="350.75" y="1247" as="targetPoint" />
          </mxGeometry>
        </mxCell>
        <mxCell id="L6oSHJMiZWYgVflE6wv4-47" value="" style="endArrow=none;html=1;rounded=0;exitX=0.5;exitY=0.5;exitDx=0;exitDy=0;exitPerimeter=0;entryX=0.054;entryY=0.326;entryDx=0;entryDy=0;strokeColor=#000000;strokeWidth=2;entryPerimeter=0;" edge="1" parent="1" source="L6oSHJMiZWYgVflE6wv4-39" target="L6oSHJMiZWYgVflE6wv4-31">
          <mxGeometry width="50" height="50" relative="1" as="geometry">
            <mxPoint x="196" y="1491" as="sourcePoint" />
            <mxPoint x="325" y="1331" as="targetPoint" />
          </mxGeometry>
        </mxCell>
        <mxCell id="L6oSHJMiZWYgVflE6wv4-48" value="" style="endArrow=none;html=1;rounded=0;exitX=0.5;exitY=0.5;exitDx=0;exitDy=0;exitPerimeter=0;entryX=0.2;entryY=0.148;entryDx=0;entryDy=0;strokeColor=#000000;strokeWidth=2;entryPerimeter=0;" edge="1" parent="1" source="L6oSHJMiZWYgVflE6wv4-39" target="L6oSHJMiZWYgVflE6wv4-32">
          <mxGeometry width="50" height="50" relative="1" as="geometry">
            <mxPoint x="199" y="1567" as="sourcePoint" />
            <mxPoint x="328" y="1407" as="targetPoint" />
          </mxGeometry>
        </mxCell>
      </root>
    </mxGraphModel>
  </diagram>
</mxfile>
